<?xml version="1.0" standalone="no"?>
<!DOCTYPE svg PUBLIC "-//W3C//DTD SVG 20010904//EN"
 "http://www.w3.org/TR/2001/REC-SVG-20010904/DTD/svg10.dtd">
<svg version="1.0" xmlns="http://www.w3.org/2000/svg"
 width="300.000000pt" height="300.000000pt" viewBox="0 0 300.000000 300.000000"
 preserveAspectRatio="xMidYMid meet">
<metadata>
Created by potrace 1.14, written by Peter Selinger 2001-2017
</metadata>
<g transform="translate(0.000000,300.000000) scale(0.100000,-0.100000)"
fill="#000000" stroke="none">
<path d="M1348 2985 c-2 -2 -25 -6 -52 -9 -87 -12 -187 -36 -277 -66 -91 -30
-262 -110 -290 -136 -8 -8 -19 -14 -23 -14 -23 0 -210 -153 -280 -229 -17 -19
-38 -41 -47 -50 -27 -28 -100 -124 -137 -181 -34 -53 -122 -223 -127 -245 -1
-5 -7 -22 -13 -37 -61 -149 -91 -332 -87 -543 1 -93 6 -183 9 -200 4 -16 11
-55 17 -85 6 -30 26 -101 45 -157 180 -553 677 -956 1254 -1018 62 -6 272 -7
310 -1 14 2 48 7 75 11 76 9 231 51 320 85 347 135 647 415 806 754 44 95 95
243 104 307 4 24 8 46 10 49 2 3 6 26 10 50 21 138 21 344 0 465 -84 484 -379
883 -812 1099 -89 45 -266 109 -333 121 -149 27 -213 33 -337 33 -78 0 -143
-2 -145 -3z m103 -804 c15 -5 30 -7 33 -4 3 4 6 1 6 -5 0 -7 3 -11 8 -10 19 5
98 -48 147 -99 30 -31 53 -59 51 -61 -3 -2 3 -12 12 -23 19 -22 54 -128 46
-140 -3 -5 -1 -9 3 -9 7 0 10 -151 4 -169 0 -2 -26 22 -58 52 -50 50 -56 61
-56 97 0 22 -4 40 -9 40 -4 0 -8 10 -8 21 0 49 -118 179 -162 179 -10 0 -18 4
-18 10 0 9 -85 25 -125 23 -42 -2 -88 -14 -124 -33 -48 -25 -121 -89 -121
-106 0 -8 -3 -14 -7 -14 -5 0 -17 -21 -28 -48 -19 -45 -20 -72 -21 -545 l-1
-498 -49 -50 c-26 -27 -51 -49 -55 -49 -4 0 -7 250 -7 555 0 305 4 555 8 555
4 0 6 11 5 25 -2 14 1 25 6 25 6 0 7 5 4 11 -4 5 0 18 8 27 8 9 18 28 22 41 9
30 123 144 167 167 86 46 247 63 319 35z m494 -139 c0 -20 -3 -43 -8 -49 -6
-8 -6 -13 -1 -13 11 0 12 -70 1 -87 -4 -6 -4 -14 1 -17 10 -6 9 -107 -2 -124
-4 -7 -3 -12 1 -12 10 0 10 -131 -1 -148 -4 -6 -3 -12 1 -12 10 0 10 -70 0
-87 -4 -6 -4 -14 1 -17 10 -6 9 -107 -2 -124 -4 -7 -3 -12 1 -12 10 0 10 -70
0 -87 -4 -6 -3 -14 2 -17 5 -4 7 -24 5 -46 -4 -28 -1 -40 8 -40 10 0 13 24 13
95 0 52 -4 95 -8 95 -5 0 -5 6 -1 12 11 17 11 228 1 228 -5 0 -5 5 -1 12 11
17 11 148 1 148 -4 0 -5 6 -1 12 11 17 11 228 1 228 -5 0 -5 6 -1 12 5 7 8 31
9 53 0 35 8 49 50 93 27 29 52 52 55 52 6 0 3 -1099 -3 -1125 -3 -11 -6 -22
-7 -25 -1 -3 -3 -9 -4 -15 -8 -48 -82 -156 -136 -200 -30 -25 -110 -76 -110
-71 0 2 -21 -2 -47 -10 -52 -16 -210 -17 -219 -2 -3 4 -9 6 -14 3 -5 -3 -24 2
-42 12 -18 9 -36 16 -40 15 -5 -1 -8 3 -8 8 0 6 -7 10 -15 10 -21 0 -129 110
-146 148 -8 18 -18 32 -22 32 -5 0 -6 4 -3 8 3 5 -2 22 -10 38 -9 16 -17 59
-19 96 -1 36 -5 71 -9 76 -3 6 -2 13 3 17 7 4 7 15 1 30 -14 38 4 31 60 -23
42 -41 51 -57 60 -103 13 -66 40 -124 77 -164 30 -34 87 -75 106 -79 7 -2 21
-7 32 -12 21 -9 145 -11 180 -3 70 17 155 90 193 166 25 49 39 127 22 121 -7
-2 -14 -20 -16 -40 -9 -99 -113 -209 -220 -234 -166 -37 -347 92 -360 257 -2
33 3 42 51 88 29 28 55 51 58 51 2 0 4 -30 3 -67 -1 -89 26 -151 85 -190 48
-32 117 -39 162 -16 15 7 27 11 27 8 0 -2 14 10 31 28 50 51 58 80 58 221 0
70 1 129 3 131 2 2 1 34 -2 70 -3 37 -2 69 2 71 5 3 6 10 3 15 -5 7 -9 275 -4
304 1 6 1 14 0 18 -5 27 -2 318 3 326 4 5 29 -15 58 -45 42 -44 52 -61 53 -92z
m-507 4 c58 -21 98 -51 132 -97 15 -21 30 -35 34 -31 4 3 4 -1 0 -11 -3 -9 -1
-17 5 -17 6 0 8 -6 5 -14 -3 -8 0 -17 5 -21 6 -3 9 -10 6 -15 -3 -5 -1 -11 4
-14 20 -13 -7 -73 -54 -119 -27 -26 -50 -45 -52 -43 -2 2 -5 39 -7 83 -2 61
-8 88 -24 115 -20 32 -66 72 -84 73 -3 0 -10 3 -14 8 -11 11 -102 9 -109 -3
-4 -6 -11 -8 -16 -5 -10 7 -102 -75 -94 -83 3 -3 -1 -12 -7 -20 -16 -18 -19
-1002 -3 -1002 6 0 6 -3 -1 -8 -6 -4 -10 -26 -9 -50 2 -41 1 -42 -18 -25 -83
73 -92 86 -94 143 -1 30 -2 55 -3 55 -1 0 -3 8 -5 17 -2 10 1 18 7 18 6 0 5 6
-2 15 -7 8 -9 15 -4 15 5 0 9 11 9 25 0 14 -3 25 -7 25 -4 0 -3 11 2 24 6 17
5 26 -3 30 -8 3 -9 7 -2 13 12 9 12 53 1 71 -4 6 -3 12 1 12 12 0 10 53 -2 63
-7 5 -7 10 0 15 12 8 12 52 1 70 -4 6 -3 12 1 12 5 0 8 12 7 28 -1 15 -3 27
-4 27 -1 0 -3 8 -5 18 -2 9 1 17 7 17 6 0 5 6 -2 15 -7 8 -9 15 -4 15 5 0 9
11 9 25 0 14 -4 25 -8 25 -5 0 -5 5 -1 11 10 16 11 49 3 85 -3 18 -3 38 2 45
4 7 4 20 -1 30 -5 9 -7 19 -3 22 3 4 7 30 9 59 2 49 16 89 48 145 16 28 111
105 120 96 3 -3 6 -1 6 6 0 7 4 10 9 6 5 -3 12 -1 16 4 3 5 14 8 25 6 11 -2
20 0 20 4 0 13 102 5 148 -13z"/>
</g>
</svg>
